<svg width="145" height="39" viewBox="0 0 145 39" fill="none" xmlns="http://www.w3.org/2000/svg">
<path d="M143.928 33.7519C143.928 34.2336 143.822 34.7105 143.615 35.1555C143.409 35.6004 143.106 36.0047 142.724 36.3451C142.343 36.6855 141.889 36.9554 141.391 37.1394C140.892 37.3234 140.358 37.4179 139.818 37.4174H5.31871C4.22859 37.4184 3.18264 37.0328 2.4109 36.3454C1.63916 35.658 1.20482 34.7251 1.2034 33.7519V4.52085C1.20482 3.54716 1.63899 2.61377 2.41057 1.92563C3.18216 1.23749 4.22809 0.850839 5.31871 0.850586H139.817C140.357 0.850586 140.892 0.945527 141.39 1.12999C141.889 1.31445 142.342 1.58481 142.724 1.92564C143.105 2.26647 143.408 2.67108 143.615 3.11637C143.821 3.56167 143.927 4.03891 143.927 4.52085L143.928 33.7519Z" fill="white"/>
<path d="M139.819 38.2713H5.31919C3.97628 38.271 2.68833 37.7952 1.73794 36.9481C0.787558 36.101 0.252372 34.952 0.249817 33.7531L0.249817 4.52299C0.251804 3.32347 0.786637 2.17362 1.73699 1.3257C2.68734 0.477774 3.97561 0.00101244 5.31919 0L139.818 0C141.161 0.00151763 142.449 0.478442 143.399 1.32626C144.35 2.17407 144.885 3.32362 144.887 4.52299V33.7531C144.889 36.2452 142.611 38.2713 139.819 38.2713Z" fill="#A6A6A6"/>
<path d="M143.928 33.7519C143.928 34.2336 143.822 34.7105 143.615 35.1555C143.409 35.6004 143.106 36.0047 142.724 36.3451C142.343 36.6855 141.889 36.9554 141.391 37.1394C140.892 37.3234 140.358 37.4179 139.818 37.4174H5.31871C4.22859 37.4184 3.18264 37.0328 2.4109 36.3454C1.63916 35.658 1.20482 34.7251 1.2034 33.7519V4.52085C1.20482 3.54716 1.63899 2.61377 2.41057 1.92563C3.18216 1.23749 4.22809 0.850839 5.31871 0.850586H139.817C140.357 0.850586 140.892 0.945527 141.39 1.12999C141.889 1.31445 142.342 1.58481 142.724 1.92564C143.105 2.26647 143.408 2.67108 143.615 3.11637C143.821 3.56167 143.927 4.03891 143.927 4.52085L143.928 33.7519Z" fill="black"/>
<path d="M32.5468 18.9344C32.5157 15.8499 35.3757 14.3492 35.5065 14.2794C33.8867 12.171 31.3762 11.8829 30.4939 11.8599C28.3853 11.6618 26.34 12.9864 25.2659 12.9864C24.1703 12.9864 22.5163 11.8791 20.7336 11.9116C18.4396 11.9432 16.2935 13.129 15.1164 14.9703C12.6873 18.7248 14.499 24.2422 16.8262 27.277C17.9904 28.7642 19.3507 30.4228 21.1313 30.3644C22.8733 30.3012 23.5239 29.3739 25.6261 29.3739C27.7089 29.3739 28.32 30.3644 30.1359 30.3271C32.0054 30.3012 33.1824 28.8341 34.3059 27.3344C35.6512 25.6318 36.1915 23.9532 36.2129 23.867C36.17 23.8536 32.5832 22.6305 32.5468 18.9344ZM29.1164 9.86355C30.0533 8.8175 30.6944 7.39438 30.5164 5.9502C29.1604 6.00379 27.4645 6.78761 26.488 7.81069C25.6239 8.71223 24.8521 10.1899 25.0515 11.5795C26.5748 11.681 28.1388 10.8933 29.1164 9.86355Z" fill="white"/>
<path d="M139.818 0H67.7763L95.9939 38.2713H139.818C141.162 38.2702 142.45 37.7938 143.4 36.9462C144.35 36.0987 144.885 34.9494 144.888 33.7502V4.52299C144.886 3.32355 144.351 2.17385 143.4 1.32598C142.45 0.478108 141.162 0.00126513 139.818 0V0Z" fill="url(#paint0_linear_1_300)"/>
<path d="M57.7769 30.1515H55.3424L54.0089 26.4104H49.3737L48.1034 30.1515H45.7332L50.3267 17.4151H53.1631L57.7769 30.1515ZM53.6069 24.8408L52.4009 21.5151C52.2734 21.1753 52.0332 20.3752 51.6816 19.1158H51.6388C51.4973 19.6575 51.2711 20.4575 50.9613 21.5151L49.7757 24.8408H53.6069ZM69.5665 25.4466C69.5665 27.0085 69.0916 28.2431 68.1407 29.1494C67.2896 29.9562 66.2316 30.3591 64.9698 30.3591C63.6074 30.3591 62.6276 29.9256 62.0326 29.0566V33.8753H59.7472V23.9862C59.7472 23.0052 59.7182 21.9993 59.6625 20.9677H61.6724L61.8 22.4233H61.8429C62.6051 21.3265 63.7617 20.7782 65.3139 20.7782C66.5274 20.7782 67.5404 21.206 68.3508 22.0625C69.1602 22.921 69.5665 24.0484 69.5665 25.4466ZM67.2381 25.5213C67.2381 24.6274 67.013 23.8905 66.5606 23.3095C66.0665 22.7056 65.4029 22.4032 64.5711 22.4032C64.0072 22.4032 63.4948 22.5717 63.0371 22.9038C62.5783 23.2387 62.2781 23.6761 62.1377 24.2178C62.075 24.4204 62.0394 24.6288 62.0316 24.8389V26.3711C62.0316 27.0382 62.261 27.6019 62.7198 28.0632C63.1786 28.5226 63.7746 28.7532 64.5078 28.7532C65.3686 28.7532 66.0386 28.4556 66.5178 27.8651C66.998 27.2727 67.2381 26.4917 67.2381 25.5213ZM81.3979 25.4466C81.3979 27.0085 80.923 28.2431 79.9721 29.1494C79.1199 29.9562 78.0629 30.3591 76.8002 30.3591C75.4377 30.3591 74.4579 29.9256 73.8629 29.0566V33.8753H71.5775V23.9862C71.5775 23.0052 71.5485 21.9993 71.4928 20.9677H73.5028L73.6303 22.4233H73.6732C74.4343 21.3265 75.591 20.7782 77.1443 20.7782C78.3567 20.7782 79.3697 21.206 80.1822 22.0625C80.9905 22.921 81.3979 24.0484 81.3979 25.4466ZM79.0685 25.5213C79.0685 24.6274 78.8423 23.8905 78.3899 23.3095C77.8957 22.7056 77.2343 22.4032 76.4025 22.4032C75.8386 22.4032 75.3262 22.5717 74.8663 22.9038C74.4075 23.2387 74.1084 23.6761 73.968 24.2178C73.8983 24.4704 73.8608 24.6762 73.8608 24.8389V26.3711C73.8608 27.0382 74.0913 27.6019 74.5479 28.0632C75.0067 28.5216 75.6028 28.7532 76.3381 28.7532C77.2 28.7532 77.87 28.4556 78.3481 27.8651C78.8283 27.2727 79.0685 26.4917 79.0685 25.5213ZM94.626 26.5788C94.626 27.6631 94.2015 28.5446 93.3579 29.225C92.4296 29.9677 91.1335 30.34 89.472 30.34C87.9369 30.34 86.7063 30.0758 85.7779 29.5466L86.3064 27.8459C87.3087 28.3761 88.4096 28.6403 89.6081 28.6403C90.47 28.6403 91.14 28.4661 91.6181 28.1206C92.0972 27.7742 92.3395 27.3109 92.3395 26.7329C92.3395 26.2151 92.139 25.7816 91.7456 25.4284C91.3501 25.0762 90.6962 24.748 89.7775 24.4465C87.2798 23.6148 86.0299 22.3984 86.0299 20.7983C86.0299 19.7532 86.4715 18.8976 87.3527 18.2286C88.2338 17.5606 89.4023 17.2266 90.8559 17.2266C92.1541 17.2266 93.2357 17.4285 94.0943 17.8314L93.5208 19.4948C92.7126 19.1043 91.8003 18.909 90.7798 18.909C89.9737 18.909 89.3412 19.0861 88.8888 19.4383C88.5083 19.7532 88.3153 20.1369 88.3153 20.5925C88.3153 21.0949 88.5351 21.5122 88.9724 21.8395C89.3519 22.141 90.0444 22.4693 91.0456 22.8214C92.2741 23.2636 93.1767 23.7785 93.7545 24.3699C94.3366 24.9614 94.626 25.6993 94.626 26.5788ZM102.202 22.4989H99.6825V26.9578C99.6825 28.0919 100.126 28.6575 101.016 28.6575C101.424 28.6575 101.763 28.6269 102.031 28.5628L102.094 30.1122C101.644 30.2625 101.051 30.3381 100.317 30.3381C99.4145 30.3381 98.7092 30.0921 98.2 29.6002C97.6929 29.1083 97.4378 28.2843 97.4378 27.1243V22.4951H95.937V20.9638H97.4378V19.2823L99.6825 18.6774V20.9638H102.202V22.4989ZM113.545 25.4839C113.545 26.8956 113.093 28.0546 112.19 28.9609C111.246 29.894 109.99 30.3591 108.423 30.3591C106.912 30.3591 105.71 29.9122 104.814 29.0193C103.918 28.1244 103.47 26.997 103.47 25.6371C103.47 24.2139 103.933 23.0483 104.856 22.1419C105.781 21.2347 107.027 20.781 108.593 20.781C110.102 20.781 111.315 21.2289 112.232 22.1228C113.109 22.9899 113.545 24.1096 113.545 25.4839ZM111.176 25.5308C111.176 24.6896 110.973 23.968 110.564 23.3641C110.085 22.6348 109.399 22.2702 108.51 22.2702C107.595 22.2702 106.893 22.6348 106.415 23.3641C106.005 23.968 105.801 24.702 105.801 25.5691C105.801 26.4113 106.005 27.1348 106.415 27.7368C106.909 28.4661 107.598 28.8307 108.491 28.8307C109.365 28.8307 110.05 28.4584 110.545 27.7186C110.965 27.1004 111.176 26.374 111.176 25.5308ZM120.977 22.7621C120.74 22.7238 120.498 22.7049 120.257 22.7056C119.453 22.7056 118.831 22.9755 118.394 23.5191C118.014 23.9977 117.824 24.6025 117.824 25.3327V30.1515H115.538V23.8598C115.54 22.8958 115.518 21.9318 115.472 20.9686H117.462L117.546 22.7257H117.609C117.851 22.1218 118.231 21.6347 118.752 21.2701C119.229 20.9515 119.808 20.7789 120.404 20.7782C120.615 20.7782 120.806 20.7916 120.975 20.8155L120.977 22.7621ZM131.199 25.1251C131.204 25.4352 131.176 25.7452 131.115 26.0505H124.259C124.284 26.9578 124.617 27.6526 125.253 28.1311C125.831 28.558 126.578 28.7723 127.496 28.7723C128.511 28.7723 129.437 28.6288 130.27 28.3388L130.628 29.7543C129.655 30.1333 128.506 30.3218 127.18 30.3218C125.585 30.3218 124.333 29.9026 123.421 29.0662C122.512 28.2287 122.057 27.1033 122.057 25.6935C122.057 24.3096 122.48 23.1564 123.328 22.2367C124.216 21.2548 125.415 20.7638 126.925 20.7638C128.407 20.7638 129.53 21.2548 130.292 22.2367C130.895 23.0148 131.199 23.9795 131.199 25.1251ZM129.019 24.5958C129.035 23.99 128.885 23.4684 128.575 23.0272C128.18 22.4587 127.571 22.1754 126.755 22.1754C126.008 22.1754 125.399 22.452 124.936 23.0071C124.556 23.4483 124.329 23.9785 124.26 24.5939L129.019 24.5958Z" fill="white"/>
<path d="M48.7155 12.9105C48.0799 12.9105 47.5299 12.8827 47.0722 12.8358V6.67821C47.7124 6.58992 48.3593 6.5464 49.0071 6.54805C51.6281 6.54805 52.8351 7.69938 52.8351 9.57614C52.8351 11.741 51.4094 12.9105 48.7155 12.9105ZM49.0993 7.33761C48.7456 7.33761 48.4443 7.35675 48.1946 7.40269V12.0836C48.3296 12.1027 48.589 12.1114 48.9535 12.1114C50.6708 12.1114 51.6485 11.2385 51.6485 9.60389C51.6485 8.14632 50.7641 7.33761 49.0993 7.33761ZM56.5967 12.9574C55.1195 12.9574 54.1622 11.9726 54.1622 10.6356C54.1622 9.24213 55.1399 8.24872 56.6803 8.24872C58.1361 8.24872 59.1148 9.18662 59.1148 10.5619C59.1148 11.9726 58.106 12.9574 56.5967 12.9574ZM56.6396 8.98182C55.8281 8.98182 55.3082 9.6594 55.3082 10.6069C55.3082 11.5362 55.8388 12.2138 56.6289 12.2138C57.4189 12.2138 57.9495 11.4893 57.9495 10.5877C57.9495 9.66897 57.4296 8.98182 56.6396 8.98182ZM67.5384 8.34155L65.9572 12.855H64.927L64.272 10.8949C64.1092 10.4155 63.9736 9.92903 63.8658 9.43737H63.8443C63.7618 9.92929 63.6053 10.4222 63.4391 10.8949L62.7423 12.855H61.7014L60.2135 8.34155H61.3681L61.9405 10.4872C62.0756 10.9983 62.1892 11.4807 62.2835 11.9362H62.305C62.3875 11.5563 62.5226 11.0816 62.7209 10.4968L63.4391 8.34251H64.3546L65.0417 10.4509C65.2079 10.9619 65.3429 11.4634 65.448 11.9372H65.478C65.5509 11.473 65.6656 10.9801 65.821 10.4509L66.4353 8.34251L67.5384 8.34155ZM73.3592 12.855H72.2357V10.2633C72.2357 9.46512 71.8927 9.06508 71.2163 9.06508C70.5506 9.06508 70.0929 9.57614 70.0929 10.1705V12.855H68.9694V9.63165C68.9694 9.23256 68.9587 8.80476 68.9276 8.3406H69.916L69.9685 9.03732H69.9996C70.3019 8.55497 70.9151 8.24872 71.6022 8.24872C72.6635 8.24872 73.3602 8.9732 73.3602 10.1523L73.3592 12.855ZM76.4572 12.855H75.3327V6.27051H76.4572V12.855ZM80.5532 12.9574C79.0771 12.9574 78.1187 11.9726 78.1187 10.6356C78.1187 9.24213 79.0964 8.24872 80.6357 8.24872C82.0926 8.24872 83.0702 9.18662 83.0702 10.5619C83.0713 11.9726 82.0615 12.9574 80.5532 12.9574ZM80.595 8.98182C79.7835 8.98182 79.2636 9.6594 79.2636 10.6069C79.2636 11.5362 79.7953 12.2138 80.5832 12.2138C81.3743 12.2138 81.9039 11.4893 81.9039 10.5877C81.905 9.66897 81.3861 8.98182 80.595 8.98182ZM87.4996 12.855L87.4181 12.3353H87.3881C87.0451 12.7535 86.5445 12.9574 85.9099 12.9574C85.004 12.9574 84.3609 12.3908 84.3609 11.629C84.3609 10.515 85.4425 9.93886 87.3152 9.93886V9.8556C87.3152 9.26127 86.9625 8.96363 86.2658 8.96363C85.7673 8.96363 85.3299 9.07561 84.9451 9.2986L84.7168 8.63919C85.1841 8.37888 85.7673 8.24872 86.4523 8.24872C87.773 8.24872 88.4397 8.8708 88.4397 10.1159V11.7783C88.4397 12.2339 88.4622 12.587 88.5126 12.8559L87.4996 12.855ZM87.3452 10.6069C86.0975 10.6069 85.4714 10.8768 85.4714 11.517C85.4714 11.9908 85.7941 12.2224 86.2422 12.2224C86.8135 12.2224 87.3452 11.8329 87.3452 11.3036V10.6069ZM93.895 12.855L93.8425 12.1305H93.8114C93.4887 12.6779 92.9463 12.9574 92.1884 12.9574C90.9696 12.9574 90.067 12.0003 90.067 10.6538C90.067 9.24213 91.0028 8.24776 92.2806 8.24776C92.957 8.24776 93.4362 8.45161 93.7063 8.86123H93.7289V6.27051H94.8533V11.6386C94.8533 12.075 94.8651 12.4836 94.8952 12.855H93.895ZM93.7289 10.1992C93.7289 9.56753 93.2604 9.02871 92.5454 9.02871C91.7125 9.02871 91.2033 9.68811 91.2033 10.6164C91.2033 11.5266 91.7318 12.1496 92.5229 12.1496C93.2293 12.1496 93.7289 11.6012 93.7289 10.9514V10.1992ZM101.983 12.9574C100.507 12.9574 99.5497 11.9726 99.5497 10.6356C99.5497 9.24213 100.527 8.24872 102.067 8.24872C103.523 8.24872 104.501 9.18662 104.501 10.5619C104.502 11.9726 103.493 12.9574 101.983 12.9574ZM102.025 8.98182C101.214 8.98182 100.695 9.6594 100.695 10.6069C100.695 11.5362 101.225 12.2138 102.014 12.2138C102.805 12.2138 103.335 11.4893 103.335 10.5877C103.337 9.66897 102.817 8.98182 102.025 8.98182ZM110.543 12.855H109.418V10.2633C109.418 9.46512 109.075 9.06508 108.399 9.06508C107.733 9.06508 107.276 9.57614 107.276 10.1705V12.855H106.152V9.63165C106.152 9.23256 106.141 8.80476 106.11 8.3406H107.099L107.151 9.03732H107.182C107.483 8.55497 108.098 8.24776 108.784 8.24776C109.845 8.24776 110.543 8.97224 110.543 10.1513V12.855ZM118.101 9.09379H116.865V11.2854C116.865 11.8434 117.082 12.1219 117.519 12.1219C117.718 12.1219 117.884 12.1027 118.018 12.075L118.049 12.8368C117.831 12.9114 117.54 12.9488 117.177 12.9488C116.292 12.9488 115.762 12.5124 115.762 11.3696V9.09379H115.025V8.34155H115.762V7.51467L116.865 7.21702V8.3406H118.101V9.09379ZM124.049 12.855H122.926V10.2824C122.926 9.47469 122.584 9.06604 121.907 9.06604C121.325 9.06604 120.782 9.41919 120.782 10.1341V12.855H119.66V6.27051H120.782V8.98182H120.805C121.159 8.48989 121.671 8.24776 122.325 8.24776C123.395 8.24776 124.049 8.99043 124.049 10.1705V12.855ZM130.142 10.8394H126.77C126.792 11.6941 127.425 12.1764 128.363 12.1764C128.862 12.1764 129.321 12.1018 129.726 11.963L129.901 12.6597C129.422 12.8454 128.86 12.9382 128.205 12.9382C126.623 12.9382 125.688 12.0463 125.688 10.6633C125.688 9.27946 126.646 8.23915 128.078 8.23915C129.37 8.23915 130.18 9.09379 130.18 10.3848C130.188 10.5372 130.175 10.6898 130.142 10.8394ZM129.112 10.1245C129.112 9.4278 128.718 8.93588 128 8.93588C127.355 8.93588 126.844 9.43737 126.771 10.1245H129.112Z" fill="white"/>
<defs>
<linearGradient id="paint0_linear_1_300" x1="106.331" y1="38.3729" x2="106.331" y2="-99.6518" gradientUnits="userSpaceOnUse">
<stop stop-color="#1A1A1A" stop-opacity="0.1"/>
<stop offset="0.123" stop-color="#212121" stop-opacity="0.151"/>
<stop offset="0.308" stop-color="#353535" stop-opacity="0.227"/>
<stop offset="0.532" stop-color="#575757" stop-opacity="0.318"/>
<stop offset="0.783" stop-color="#858585" stop-opacity="0.421"/>
<stop offset="1" stop-color="#B3B3B3" stop-opacity="0.51"/>
</linearGradient>
</defs>
</svg>
