<svg width="145" height="39" viewBox="0 0 145 39" fill="none" xmlns="http://www.w3.org/2000/svg">
<path d="M139.402 38.2713H5.69355C2.752 38.2713 0.345215 36.1185 0.345215 33.4874V4.78393C0.345215 2.15276 2.75195 0 5.69355 0H139.402C142.343 0 144.75 2.15276 144.75 4.78393V33.4873C144.75 36.1185 142.343 38.2713 139.402 38.2713" fill="black"/>
<path d="M139.402 0H5.69355C2.752 0 0.345215 2.15276 0.345215 4.78393V33.4873C0.345215 36.1185 2.75195 38.2713 5.69355 38.2713H139.402C142.343 38.2713 144.75 36.1185 144.75 33.4874V4.78393C144.75 2.15276 142.343 0 139.402 0H139.402ZM139.402 0.765401C141.879 0.765401 143.894 2.56839 143.894 4.78393V33.4873C143.894 35.7033 141.879 37.5062 139.402 37.5062H5.69355C3.21666 37.5062 1.20096 35.7033 1.20096 33.4874V4.78393C1.20096 2.56839 3.21661 0.765444 5.69355 0.765444H139.402" fill="#A6A6A6"/>
<path d="M51.065 9.8002C51.065 10.6018 50.7996 11.2401 50.2681 11.7163C49.6643 12.2826 48.8775 12.5659 47.9102 12.5659C46.9839 12.5659 46.1962 12.2789 45.5486 11.704C44.8997 11.1295 44.5759 10.4172 44.5759 9.56731C44.5759 8.71703 44.8997 8.00512 45.5486 7.43021C46.1962 6.85581 46.9839 6.56836 47.9102 6.56836C48.3698 6.56836 48.8099 6.64877 49.2277 6.80912C49.6455 6.96985 49.9806 7.18322 50.2314 7.45042L49.6672 7.95533C49.2423 7.50125 48.6573 7.27438 47.9102 7.27438C47.2346 7.27438 46.6505 7.48671 46.1574 7.91164C45.6643 8.337 45.4178 8.8886 45.4178 9.56731C45.4178 10.2461 45.6643 10.7976 46.1574 11.223C46.6505 11.648 47.2346 11.8602 47.9102 11.8602C48.6269 11.8602 49.2244 11.6468 49.7028 11.2193C50.0133 10.9408 50.1928 10.5536 50.2409 10.0565H47.9101V9.36698H51.0202C51.0503 9.51692 51.0649 9.6608 51.0649 9.8002" fill="white"/>
<path d="M51.0669 9.80115H50.9599C50.9591 10.5845 50.7033 11.1929 50.1943 11.6496L50.1932 11.6504L50.1927 11.6512C49.6082 12.1979 48.8568 12.47 47.9121 12.4712C47.0105 12.47 46.2558 12.1949 45.6256 11.6373C44.9969 11.0786 44.686 10.3964 44.6848 9.56826C44.686 8.73969 44.9969 8.05797 45.6256 7.49962C46.2558 6.9416 47.0105 6.66615 47.9121 6.66498C48.3579 6.66498 48.7825 6.74281 49.1873 6.89787C49.5926 7.05413 49.9128 7.2589 50.1513 7.51312L50.2332 7.45137L50.1576 7.38373L49.5935 7.88898L49.6691 7.95628L49.7515 7.89504C49.3068 7.41847 48.6827 7.17823 47.9121 7.17965C47.2115 7.17888 46.5951 7.40282 46.0853 7.84387C45.5706 8.28634 45.3119 8.869 45.3128 9.56826C45.3119 10.2676 45.5706 10.8502 46.0853 11.2927C46.5951 11.7337 47.2115 11.9576 47.9121 11.9569C48.6525 11.958 49.2835 11.7334 49.7803 11.2879C50.112 10.9903 50.3001 10.5782 50.3494 10.0657L50.3594 9.9618H48.019V9.4636H51.0221V9.36793L50.9168 9.38474C50.9461 9.52982 50.9599 9.66768 50.9599 9.80115H51.1738C51.1738 9.65572 51.1587 9.50626 51.1274 9.35081L51.1116 9.27225H47.8052V10.1531H50.2428V10.0575L50.1363 10.0493C50.0891 10.5307 49.9177 10.8932 49.629 11.1526C49.1694 11.5622 48.6053 11.7644 47.9121 11.7655C47.2616 11.7647 46.7096 11.5644 46.2337 11.1552C45.7624 10.7474 45.5279 10.2268 45.5267 9.56826C45.5279 8.90972 45.7624 8.38911 46.2337 7.98135C46.7096 7.57211 47.2615 7.37178 47.9121 7.371C48.6354 7.37255 49.1816 7.5863 49.5873 8.01798L49.6625 8.09796L50.3089 7.51905L50.3783 7.45705L50.3151 7.39005C50.0523 7.10982 49.7022 6.88738 49.2718 6.72226C48.8406 6.55662 48.3856 6.47363 47.9121 6.47363C46.9612 6.4729 46.1405 6.77188 45.4749 7.36356C44.8068 7.95408 44.47 8.69635 44.4709 9.56826C44.47 10.4398 44.8068 11.1825 45.4753 11.7733C46.1405 12.3646 46.9612 12.6633 47.9121 12.6625C48.9024 12.6633 49.7239 12.3691 50.3473 11.7834L50.27 11.7173L50.3456 11.785C50.8997 11.2897 51.1746 10.6207 51.1739 9.80115H51.0669H51.0669ZM55.9973 7.40317H53.0745V9.22336H55.7103V9.91317H53.0745V11.7334H55.9973V12.4386H52.2506V6.69792H55.9973V7.40317Z" fill="white"/>
<path d="M55.9969 7.40248V7.30681H52.9672V9.31835H55.603V9.81655L52.9672 9.81681V11.8283H55.8899V12.3422H52.3572V6.79291H55.8899V7.40248H55.9969V7.30681V7.40248H56.1039V6.60156H52.1432V12.5336H56.1039V11.637H53.1811V10.0082H55.8169V9.127H53.1811V7.49816H56.1039V7.40248H55.9969ZM59.4746 12.438H58.6494V7.40244H56.8568V6.69719H61.2672V7.40244H59.4746V12.4379" fill="white"/>
<path d="M59.4751 12.438V12.3422H58.7568V7.30681H56.9643V6.79296H61.1607V7.30681H59.3681V12.4379H59.4751V12.3422V12.4379H59.5821V7.49816H61.3746V6.60156H56.7504V7.49811H58.5429V12.5336H59.5821V12.4379H59.4751V12.438ZM64.4587 12.438V6.69719H65.2831V12.4379H64.4587" fill="white"/>
<path d="M64.4596 12.438H64.5666V6.79291H65.1771V12.3422H64.4596V12.4379H64.5666H64.4596V12.5336H65.391V6.60156H64.3527V12.5336H64.4596V12.4379V12.438ZM68.9422 12.438H68.117V7.40244H66.3245V6.69719H70.7348V7.40244H68.9422V12.4379" fill="white"/>
<path d="M68.9407 12.4377V12.342H68.2225V7.30654H66.43V6.79269H70.6263V7.30654H68.8338V12.4377H68.9407V12.342V12.4377H69.0477V7.49789H70.8403V6.6013H66.2161V7.49785H68.0085V12.5333H69.0477V12.4376H68.9407V12.4377ZM74.9852 11.2152C75.4603 11.6453 76.0415 11.8602 76.7289 11.8602C77.4163 11.8602 77.9978 11.6453 78.4721 11.2152C78.9476 10.785 79.1858 10.2351 79.1858 9.56731C79.1858 8.89952 78.9476 8.34964 78.4721 7.91946C77.9978 7.48929 77.4163 7.27438 76.7289 7.27438C76.0415 7.27438 75.4603 7.48929 74.9852 7.91946C74.511 8.34964 74.2729 8.89948 74.2729 9.56731C74.2729 10.2351 74.511 10.785 74.9852 11.2152ZM79.0821 11.6958C78.4512 12.2761 77.6665 12.5659 76.7289 12.5659C75.7904 12.5659 75.0061 12.2761 74.3765 11.6958C73.7451 11.116 73.4309 10.4064 73.4309 9.56731C73.4309 8.72821 73.7451 8.01845 74.3765 7.43885C75.0061 6.85835 75.7904 6.56836 76.7289 6.56836C77.6615 6.56836 78.4441 6.8599 79.078 7.44259C79.711 8.02524 80.0277 8.73346 80.0277 9.56731C80.0277 10.4064 79.7118 11.116 79.0821 11.6958Z" fill="white"/>
<path d="M74.9855 11.2162L74.9094 11.2834C75.4021 11.7308 76.0167 11.958 76.7291 11.9569C77.4411 11.958 78.0565 11.7308 78.5484 11.2834C79.0443 10.8356 79.2937 10.2563 79.293 9.56826C79.2937 8.88026 79.0443 8.30092 78.5484 7.85312C78.0565 7.40575 77.4411 7.17854 76.7291 7.17965C76.0167 7.17854 75.4021 7.40575 74.9094 7.85312C74.4147 8.30092 74.1648 8.88026 74.1661 9.56826C74.1648 10.2563 74.4147 10.8356 74.9094 11.2834L74.9855 11.2162L75.0616 11.1489C74.6078 10.7358 74.3809 10.2163 74.38 9.56826C74.3809 8.92025 74.6078 8.40073 75.0615 7.98767C75.5194 7.57474 76.0664 7.37216 76.7291 7.37105C77.3913 7.37216 77.9395 7.57474 78.3963 7.98767C78.8509 8.40073 79.0778 8.92025 79.0786 9.56826C79.0778 10.2163 78.8509 10.7358 78.3963 11.1489C77.9395 11.5618 77.3914 11.7644 76.7291 11.7655C76.0664 11.7644 75.5194 11.5618 75.0615 11.1489L74.9855 11.2162ZM79.0824 11.6967L79.0059 11.6302C78.3925 12.1923 77.6425 12.47 76.7291 12.4712C75.8153 12.47 75.0653 12.1923 74.4531 11.6302L74.4502 11.6272L74.4531 11.6302C73.841 11.0662 73.539 10.386 73.5381 9.56826C73.539 8.75049 73.841 8.07031 74.4531 7.50632C75.0653 6.94418 75.8153 6.66615 76.7291 6.66503C77.6366 6.66615 78.3849 6.94535 79.0017 7.51041C79.6159 8.07702 79.9197 8.75612 79.921 9.56826C79.9197 10.386 79.6168 11.0662 79.0059 11.6302L79.0824 11.6967L79.1593 11.7632C79.8077 11.1675 80.1357 10.4286 80.1349 9.56826C80.1357 8.71282 79.8065 7.97541 79.155 7.37707C78.5032 6.77636 77.6868 6.4726 76.7291 6.47364C75.7664 6.4726 74.9475 6.77494 74.2998 7.37333V7.3729C73.6501 7.96901 73.3233 8.70792 73.3242 9.56826C73.3233 10.4286 73.6501 11.1675 74.2998 11.7636L74.3027 11.7663L74.2998 11.7632C74.9475 12.3616 75.7664 12.6633 76.7291 12.6625C77.6914 12.6633 78.5103 12.3616 79.1593 11.7632L79.0824 11.6967ZM81.1853 12.4386V6.69788H82.189L85.3082 11.1637H85.3437L85.3082 10.0574V6.69788H86.1334V12.4386H85.2726L82.0093 7.75628H81.9738L82.0093 8.86298V12.4386H81.1854" fill="white"/>
<path d="M81.1851 12.438H81.2921V6.79291H82.1294L85.2486 11.2588H85.4533L85.4149 10.0554V6.79296H86.0262V12.3422H85.3318L82.0685 7.65997H81.8637L81.9021 8.86388V12.3422H81.1852V12.4379H81.2921H81.1852V12.5336H82.1161V8.86083L82.0806 7.75306L81.9736 7.75564V7.85132H82.0091V7.75564L81.9184 7.80651L85.2131 12.5336H86.2402V6.60156H85.201V10.0579L85.2365 11.1657L85.3435 11.1631V11.0674H85.3079V11.1631L85.3987 11.1123L82.248 6.60156H81.0782V12.5336H81.1852V12.4379L81.1851 12.438ZM114.731 28.7032H116.727V16.7423H114.731L114.731 28.7032ZM132.708 21.0509L130.42 26.2366H130.352L127.977 21.0509H125.827L129.388 28.2988L127.358 32.3304H129.441L134.928 21.0509L132.708 21.0509ZM121.389 27.3447C120.735 27.3447 119.823 27.0524 119.823 26.3289C119.823 25.4057 120.959 25.0518 121.939 25.0518C122.817 25.0518 123.229 25.221 123.763 25.4521C123.608 26.5598 122.541 27.3447 121.389 27.3447ZM121.63 20.7892C120.185 20.7892 118.688 21.3588 118.069 22.6206L119.84 23.2821C120.219 22.6206 120.924 22.4049 121.664 22.4049C122.696 22.4049 123.746 22.9592 123.763 23.944V24.067C123.401 23.8823 122.628 23.6054 121.681 23.6054C119.772 23.6054 117.827 24.5438 117.827 26.2982C117.827 27.8986 119.393 28.9297 121.147 28.9297C122.49 28.9297 123.229 28.3911 123.694 27.7603H123.763V28.6834H125.689V24.0976C125.689 21.9744 123.918 20.7892 121.63 20.7892ZM109.294 22.5069H106.456V18.407H109.294C110.787 18.407 111.634 19.5121 111.634 20.4569C111.634 21.3838 110.787 22.5069 109.294 22.5069ZM109.243 16.7423H104.461V28.7032H106.456V24.1716H109.243C111.455 24.1716 113.63 22.739 113.63 20.4569C113.63 18.1749 111.455 16.7423 109.243 16.7423ZM83.1636 27.3469C81.7847 27.3469 80.6302 26.3143 80.6302 24.8959C80.6302 23.4627 81.7847 22.4143 83.1636 22.4143C84.525 22.4143 85.5933 23.4626 85.5933 24.8959C85.5933 26.3143 84.525 27.3469 83.1636 27.3469H83.1636ZM85.4554 21.7206H85.3865C84.9386 21.2429 84.0765 20.8113 82.9911 20.8113C80.7163 20.8113 78.6313 22.5993 78.6313 24.8959C78.6313 27.1773 80.7163 28.9499 82.9911 28.9499C84.0765 28.9499 84.9386 28.5182 85.3865 28.0252H85.4554V28.6109C85.4554 30.168 84.525 31.0003 83.0257 31.0003C81.8022 31.0003 81.0439 30.2139 80.7334 29.5512L78.9932 30.1986C79.4929 31.2775 80.8199 32.6033 83.0257 32.6033C85.3693 32.6033 87.3511 31.3699 87.3511 28.3642V21.058H85.4554V21.7206ZM88.7296 28.7032H90.7286V16.7419H88.7296V28.7032ZM93.6755 24.7573C93.6237 23.1849 95.0369 22.3836 96.0535 22.3836C96.8467 22.3836 97.5185 22.7379 97.7421 23.247L93.6755 24.7573ZM99.8793 23.4009C99.5006 22.4912 98.3454 20.8113 95.9845 20.8113C93.6409 20.8113 91.6938 22.4606 91.6938 24.8806C91.6938 27.162 93.6237 28.9499 96.2085 28.9499C98.294 28.9499 99.5006 27.8092 100 27.1465L98.4491 26.2215C97.9325 26.8999 97.2255 27.3469 96.2085 27.3469C95.1919 27.3469 94.4683 26.9306 94.0027 26.1139L100.086 23.8632L99.8793 23.4009ZM51.4146 22.0599V23.7862H56.0329C55.895 24.7573 55.5331 25.4662 54.9816 25.9595C54.3097 26.5609 53.2585 27.2236 51.4145 27.2236C48.5711 27.2236 46.3482 25.1735 46.3482 22.6302C46.3482 20.0869 48.5711 18.0367 51.4146 18.0367C52.9484 18.0367 54.0682 18.5763 54.8955 19.2699L56.2569 18.0523C55.1024 17.0656 53.5685 16.3103 51.4146 16.3103C47.5198 16.3103 44.2457 19.1466 44.2457 22.6302C44.2457 26.1139 47.5198 28.9499 51.4146 28.9499C53.5171 28.9499 55.1024 28.3336 56.343 27.1773C57.6182 26.0366 58.0148 24.4336 58.0148 23.139C58.0148 22.7379 57.9804 22.3683 57.9111 22.0599H51.4146ZM63.2653 27.3469C61.8864 27.3469 60.6973 26.3295 60.6973 24.8806C60.6973 23.4162 61.8864 22.4143 63.2653 22.4143C64.6437 22.4143 65.8328 23.4162 65.8328 24.8806C65.8328 26.3296 64.6437 27.3469 63.2653 27.3469ZM63.2653 20.8113C60.749 20.8113 58.6983 22.5222 58.6983 24.8806C58.6983 27.2236 60.749 28.9499 63.2653 28.9499C65.7811 28.9499 67.8318 27.2236 67.8318 24.8806C67.8318 22.5222 65.7811 20.8113 63.2653 20.8113ZM73.2273 27.3469C71.849 27.3469 70.6597 26.3295 70.6597 24.8806C70.6597 23.4162 71.849 22.4143 73.2274 22.4143C74.6058 22.4143 75.795 23.4162 75.795 24.8806C75.795 26.3296 74.6058 27.3469 73.2274 27.3469H73.2273ZM73.2273 20.8113C70.7112 20.8113 68.6608 22.5222 68.6608 24.8806C68.6608 27.2236 70.7112 28.9499 73.2274 28.9499C75.7432 28.9499 77.794 27.2236 77.794 24.8806C77.794 22.5222 75.7432 20.8113 73.2274 20.8113H73.2273Z" fill="white"/>
<path d="M11.5849 7.28325C11.2259 7.57294 11.0117 8.05613 11.0117 8.69752V8.55252V29.7176V29.5782C11.0117 30.1705 11.1955 30.6279 11.5067 30.9225L11.5862 30.9906V30.9909C11.8381 31.1942 12.1611 31.3022 12.5314 31.3018C12.8931 31.3018 13.3002 31.1987 13.7297 30.9808L29.2561 23.09L34.5894 20.3792C35.2667 20.035 35.6469 19.591 35.7105 19.1388V19.1369C35.6469 18.6836 35.2667 18.2399 34.5894 17.8957L29.2557 15.1853L13.7298 7.29443C13.2993 7.0762 12.892 6.97266 12.5293 6.97266C12.1595 6.97266 11.8368 7.08029 11.585 7.28325H11.5849Z" fill="#00C1FF"/>
<path d="M11.5862 30.9893L11.5067 30.9212C11.1955 30.6267 11.0117 30.1692 11.0117 29.5769V29.7163V8.55647V8.69622C11.0117 8.05483 11.2259 7.57164 11.5849 7.28195L24.8379 19.136L11.5862 30.9893Z" fill="url(#paint0_linear_1_310)"/>
<path d="M29.2567 23.0889L24.8385 19.1362L29.2564 15.1842L34.59 17.8946C35.2673 18.2388 35.6475 18.6825 35.7111 19.1358V19.1376C35.6475 19.5899 35.2673 20.034 34.59 20.3781L29.2568 23.0888" fill="url(#paint1_linear_1_310)"/>
<path d="M12.532 31.3008C12.1618 31.3011 11.8388 31.1931 11.5869 30.9898V30.9895L24.8386 19.1362L29.2568 23.0888L13.7303 30.9797C13.3008 31.1976 12.8938 31.3008 12.532 31.3008Z" fill="url(#paint2_linear_1_310)"/>
<path d="M24.8399 19.1367L11.5869 7.28268C11.8388 7.07972 12.1614 6.97209 12.5312 6.97209C12.8939 6.97209 13.3013 7.07559 13.7317 7.29386L29.2577 15.1847L24.8399 19.1367" fill="url(#paint3_linear_1_310)"/>
<path d="M12.5331 31.4404C12.163 31.4404 11.8395 31.3324 11.5875 31.1291L11.5871 31.1295C11.5861 31.1285 11.585 31.1277 11.5838 31.1269L11.5149 31.0667C11.5127 31.0648 11.5107 31.0626 11.5081 31.0604L11.5876 30.9893C11.8395 31.1926 12.1625 31.3006 12.5328 31.3002C12.8945 31.3002 13.3015 31.1971 13.7311 30.9793L29.2575 23.0884L29.357 23.1774L29.2563 23.2286L13.731 31.119C13.3396 31.3175 12.9672 31.421 12.6309 31.4382C12.5983 31.4397 12.5657 31.4404 12.5331 31.4404" fill="url(#paint4_linear_1_310)"/>
<path d="M11.5067 31.0605C11.1955 30.766 11.0117 30.3089 11.0117 29.7162V29.5768C11.0117 30.1691 11.1955 30.6265 11.5067 30.9211L11.5862 30.9892L11.5067 31.0605Z" fill="url(#paint5_linear_1_310)"/>
<path d="M29.3559 23.1777L29.2564 23.0887L34.5896 20.378C35.267 20.0338 35.6472 19.5898 35.7108 19.1375C35.7108 19.3035 35.6694 19.4694 35.5871 19.6309C35.4212 19.9564 35.0887 20.264 34.5897 20.5178L29.3559 23.1777" fill="url(#paint6_linear_1_310)"/>
<path d="M35.7112 19.1367C35.6477 18.6834 35.2674 18.2397 34.5901 17.8955L29.2564 15.1851L29.3559 15.0961H29.3563L34.5901 17.7561C35.3368 18.1358 35.7108 18.6362 35.7112 19.1367Z" fill="url(#paint7_linear_1_310)"/>
<path d="M11.0117 8.69727V8.55107C11.0117 8.49835 11.0133 8.44679 11.0163 8.39674V8.39446C11.0163 8.39377 11.0163 8.39304 11.0166 8.39227V8.38663C11.0488 7.87644 11.2259 7.47847 11.5067 7.21273L11.5849 7.28295C11.2259 7.57269 11.0117 8.05588 11.0117 8.69727Z" fill="url(#paint8_linear_1_310)"/>
<path d="M29.2571 15.1836L13.7311 7.29265C13.3007 7.07443 12.8934 6.97093 12.5306 6.97093C12.1608 6.97093 11.8382 7.07855 11.5863 7.28151L11.5081 7.21125C11.5326 7.18813 11.5579 7.16582 11.5842 7.14439C11.585 7.14361 11.5863 7.14284 11.5872 7.14211C11.8371 6.9407 12.1563 6.83307 12.5227 6.83113H12.5306C12.8934 6.83113 13.3007 6.93468 13.7311 7.15299L29.357 15.0943L29.3566 15.0946L29.2571 15.1836Z" fill="url(#paint9_linear_1_310)"/>
<defs>
<linearGradient id="paint0_linear_1_310" x1="19.4811" y1="8.33283" x2="9.3486" y2="19.6974" gradientUnits="userSpaceOnUse">
<stop stop-color="#00A0FF"/>
<stop offset="0.00657" stop-color="#00A1FF"/>
<stop offset="0.2601" stop-color="#00BEFF"/>
<stop offset="0.5122" stop-color="#00D2FF"/>
<stop offset="0.7604" stop-color="#00DFFF"/>
<stop offset="1" stop-color="#00E3FF"/>
</linearGradient>
<linearGradient id="paint1_linear_1_310" x1="36.5363" y1="19.0679" x2="10.6536" y2="19.0679" gradientUnits="userSpaceOnUse">
<stop stop-color="#FFE000"/>
<stop offset="0.4087" stop-color="#FFBD00"/>
<stop offset="0.7754" stop-color="#FFA500"/>
<stop offset="1" stop-color="#FF9C00"/>
</linearGradient>
<linearGradient id="paint2_linear_1_310" x1="26.9111" y1="22.8942" x2="9.7266" y2="42.0275" gradientUnits="userSpaceOnUse">
<stop stop-color="#FF3A44"/>
<stop offset="1" stop-color="#C31162"/>
</linearGradient>
<linearGradient id="paint3_linear_1_310" x1="8.17121" y1="5.52526" x2="15.8286" y2="14.0642" gradientUnits="userSpaceOnUse">
<stop stop-color="#32A071"/>
<stop offset="0.0685" stop-color="#2DA771"/>
<stop offset="0.4762" stop-color="#15CF74"/>
<stop offset="0.8009" stop-color="#06E775"/>
<stop offset="1" stop-color="#00F076"/>
</linearGradient>
<linearGradient id="paint4_linear_1_310" x1="26.9022" y1="25.6355" x2="13.1514" y2="41.0585" gradientUnits="userSpaceOnUse">
<stop stop-color="#CC2E36"/>
<stop offset="1" stop-color="#9C0E4E"/>
</linearGradient>
<linearGradient id="paint5_linear_1_310" x1="12.7772" y1="8.33271" x2="3.85057" y2="18.3449" gradientUnits="userSpaceOnUse">
<stop stop-color="#008DE0"/>
<stop offset="0.00657" stop-color="#008DE0"/>
<stop offset="0.2601" stop-color="#00A7E0"/>
<stop offset="0.5122" stop-color="#00B8E0"/>
<stop offset="0.7604" stop-color="#00C4E0"/>
<stop offset="1" stop-color="#00C7E0"/>
</linearGradient>
<linearGradient id="paint6_linear_1_310" x1="36.536" y1="19.1366" x2="10.6533" y2="19.1366" gradientUnits="userSpaceOnUse">
<stop stop-color="#E0C500"/>
<stop offset="0.4087" stop-color="#E0A600"/>
<stop offset="0.7754" stop-color="#E09100"/>
<stop offset="1" stop-color="#E08900"/>
</linearGradient>
<linearGradient id="paint7_linear_1_310" x1="36.5365" y1="19.1377" x2="10.6538" y2="19.1377" gradientUnits="userSpaceOnUse">
<stop stop-color="#FFE840"/>
<stop offset="0.4087" stop-color="#FFCE40"/>
<stop offset="0.7754" stop-color="#FFBC40"/>
<stop offset="1" stop-color="#FFB540"/>
</linearGradient>
<linearGradient id="paint8_linear_1_310" x1="12.7662" y1="8.35013" x2="4.12527" y2="17.622" gradientUnits="userSpaceOnUse">
<stop stop-color="#40B8FF"/>
<stop offset="0.00657" stop-color="#40B9FF"/>
<stop offset="0.2601" stop-color="#40CEFF"/>
<stop offset="0.5122" stop-color="#40DDFF"/>
<stop offset="0.7604" stop-color="#40E7FF"/>
<stop offset="1" stop-color="#40EAFF"/>
</linearGradient>
<linearGradient id="paint9_linear_1_310" x1="8.15131" y1="8.031" x2="14.2917" y2="14.9181" gradientUnits="userSpaceOnUse">
<stop stop-color="#65B895"/>
<stop offset="0.0685" stop-color="#62BD95"/>
<stop offset="0.4762" stop-color="#50DB97"/>
<stop offset="0.8009" stop-color="#44ED98"/>
<stop offset="1" stop-color="#40F498"/>
</linearGradient>
</defs>
</svg>
