<svg width="17" height="19" viewBox="0 0 17 19" fill="none" xmlns="http://www.w3.org/2000/svg">
<path d="M15.1454 18.6048C14.7565 18.6048 14.431 18.4738 14.1689 18.2117C13.906 17.9488 13.7745 17.6229 13.7745 17.234V1.86315C13.7745 1.49371 13.906 1.17754 14.1689 0.914651C14.431 0.65254 14.7565 0.521484 15.1454 0.521484C15.5148 0.521484 15.831 0.65254 16.0939 0.914651C16.356 1.17754 16.487 1.49371 16.487 1.86315V17.234C16.487 17.6229 16.356 17.9488 16.0939 18.2117C15.831 18.4738 15.5148 18.6048 15.1454 18.6048ZM2.02038 18.6048C1.84538 18.6048 1.67543 18.571 1.51054 18.5033C1.34488 18.4349 1.19866 18.3377 1.07188 18.2117C0.945877 18.0849 0.848655 17.939 0.780211 17.7742C0.712544 17.6085 0.678711 17.4284 0.678711 17.234V13.5298C0.678711 13.1604 0.809766 12.8442 1.07188 12.5813C1.33477 12.3192 1.65093 12.1882 2.02038 12.1882C2.40927 12.1882 2.73516 12.3192 2.99804 12.5813C3.26016 12.8442 3.39121 13.1604 3.39121 13.5298V17.234C3.39121 17.4284 3.35232 17.6085 3.27454 17.7742C3.19677 17.939 3.09954 18.0849 2.98288 18.2117C2.86621 18.3377 2.72543 18.4349 2.56054 18.5033C2.39488 18.571 2.21482 18.6048 2.02038 18.6048ZM8.58288 18.6048C8.21343 18.6048 7.89766 18.4738 7.63554 18.2117C7.37265 17.9488 7.24121 17.6229 7.24121 17.234V7.69648C7.24121 7.32704 7.37265 7.01087 7.63554 6.74798C7.89766 6.48587 8.21343 6.35482 8.58288 6.35482C8.95232 6.35482 9.2681 6.48587 9.53021 6.74798C9.7931 7.01087 9.92454 7.32704 9.92454 7.69648V17.234C9.92454 17.6229 9.7931 17.9488 9.53021 18.2117C9.2681 18.4738 8.95232 18.6048 8.58288 18.6048Z" fill="#1DA1F2"/>
</svg>
