<svg width="144" height="51" viewBox="0 0 144 51" fill="none" xmlns="http://www.w3.org/2000/svg">
<path d="M3.73091 0H9.92203L19.0381 25.5355L28.1542 0H34.3453L21.5243 34.7798H16.5519L3.73091 0ZM0.391602 0H6.55835L7.67957 24.8905V34.7798H0.391602V0ZM31.5178 0H37.709V34.7798H30.3966V24.8905L31.5178 0Z" fill="white"/>
<path d="M52.1021 35.1381C50.5665 35.1381 49.1893 34.8993 47.9706 34.4215C46.7519 33.9318 45.716 33.257 44.8629 32.3971C44.0219 31.5371 43.376 30.5399 42.9251 29.4052C42.4742 28.2586 42.2487 27.0404 42.2487 25.7505V25.0338C42.2487 23.5648 42.462 22.2211 42.8885 21.0029C43.3151 19.7846 43.9244 18.7276 44.7166 17.8318C45.521 16.9361 46.496 16.2493 47.6416 15.7716C48.7872 15.2819 50.079 15.037 51.5171 15.037C52.9186 15.037 54.1617 15.264 55.2464 15.7178C56.3311 16.1717 57.239 16.8166 57.9703 17.6527C58.7137 18.4887 59.2743 19.492 59.6521 20.6625C60.0299 21.821 60.2188 23.1109 60.2188 24.5322V26.6821H44.4972V23.2423H55.0453V22.8482C55.0453 22.1315 54.9112 21.4926 54.6431 20.9312C54.3872 20.3579 53.9972 19.9041 53.4732 19.5696C52.9491 19.2352 52.2788 19.068 51.4623 19.068C50.7676 19.068 50.1704 19.2173 49.6707 19.5159C49.1711 19.8145 48.7628 20.2325 48.4459 20.77C48.1412 21.3074 47.9097 21.9404 47.7512 22.669C47.605 23.3856 47.5319 24.1739 47.5319 25.0338V25.7505C47.5319 26.5268 47.6416 27.2434 47.8609 27.9003C48.0925 28.5572 48.4154 29.1245 48.8298 29.6023C49.2564 30.08 49.7682 30.4503 50.3654 30.713C50.9748 30.9758 51.6634 31.1072 52.4311 31.1072C53.3818 31.1072 54.2653 30.928 55.0819 30.5697C55.9106 30.1995 56.6236 29.6441 57.2207 28.9036L59.7801 31.6267C59.3657 32.212 58.799 32.7733 58.0799 33.3108C57.3731 33.8482 56.52 34.2902 55.5206 34.6365C54.5213 34.9709 53.3818 35.1381 52.1021 35.1381Z" fill="white"/>
<path d="M69.8711 32.7196L76.2146 15.3953H78.4631L71.0593 34.7798H69.4689L69.8711 32.7196ZM64.1309 15.3953L70.5475 32.7733L70.8948 34.7798H69.2861L61.8641 15.3953H64.1309Z" fill="white"/>
<path d="M80.5654 25.3922V24.8009C80.5654 23.3916 80.7726 22.0897 81.187 20.8954C81.6013 19.701 82.1924 18.6679 82.9602 17.796C83.7402 16.9241 84.6725 16.2493 85.7572 15.7716C86.8418 15.2819 88.0484 15.037 89.3768 15.037C90.7174 15.037 91.93 15.2819 93.0147 15.7716C94.0993 16.2493 95.0317 16.9241 95.8117 17.796C96.5916 18.6679 97.1888 19.701 97.6032 20.8954C98.0175 22.0897 98.2247 23.3916 98.2247 24.8009V25.3922C98.2247 26.8015 98.0175 28.1034 97.6032 29.2977C97.1888 30.4801 96.5916 31.5073 95.8117 32.3792C95.0439 33.2511 94.1176 33.9318 93.033 34.4215C91.9483 34.8993 90.7418 35.1381 89.4133 35.1381C88.0727 35.1381 86.8601 34.8993 85.7755 34.4215C84.6908 33.9318 83.7585 33.2511 82.9785 32.3792C82.1985 31.5073 81.6013 30.4801 81.187 29.2977C80.7726 28.1034 80.5654 26.8015 80.5654 25.3922ZM82.7408 24.8009V25.3922C82.7408 26.4551 82.8871 27.4644 83.1796 28.4199C83.4721 29.3634 83.8986 30.2054 84.4592 30.9459C85.0198 31.6745 85.7145 32.2478 86.5433 32.6658C87.372 33.0838 88.3287 33.2929 89.4133 33.2929C90.4858 33.2929 91.4303 33.0838 92.2469 32.6658C93.0756 32.2478 93.7703 31.6745 94.3309 30.9459C94.8915 30.2054 95.312 29.3634 95.5923 28.4199C95.8848 27.4644 96.031 26.4551 96.031 25.3922V24.8009C96.031 23.7499 95.8848 22.7526 95.5923 21.8091C95.312 20.8655 94.8854 20.0235 94.3126 19.283C93.752 18.5425 93.0573 17.9572 92.2286 17.5273C91.3999 17.0973 90.4493 16.8823 89.3768 16.8823C88.3043 16.8823 87.3537 17.0973 86.525 17.5273C85.7084 17.9572 85.0137 18.5425 84.4409 19.283C83.8803 20.0235 83.4538 20.8655 83.1613 21.8091C82.881 22.7526 82.7408 23.7499 82.7408 24.8009Z" fill="white"/>
<path d="M105.19 7.26173V34.7798H103.014V7.26173H105.19Z" fill="white"/>
<path d="M116.999 32.7196L123.343 15.3953H125.591L118.187 34.7798H116.597L116.999 32.7196ZM111.259 15.3953L117.676 32.7733L118.023 34.7798H116.414L108.992 15.3953H111.259Z" fill="white"/>
<path d="M136.578 35.1381C135.286 35.1381 134.098 34.9053 133.013 34.4394C131.941 33.9736 131.002 33.3167 130.198 32.4688C129.406 31.6208 128.79 30.6175 128.352 29.459C127.925 28.2885 127.712 27.0105 127.712 25.625V24.8547C127.712 23.3617 127.937 22.0121 128.388 20.8058C128.839 19.5995 129.461 18.5664 130.253 17.7064C131.045 16.8465 131.947 16.1896 132.958 15.7357C133.982 15.2699 135.055 15.037 136.176 15.037C137.431 15.037 138.546 15.258 139.521 15.6999C140.496 16.1299 141.313 16.745 141.971 17.5452C142.641 18.3335 143.147 19.271 143.488 20.3579C143.829 21.4328 144 22.6212 144 23.9231V25.2309H129.028V23.4035H141.825V23.1527C141.8 22.0658 141.575 21.0506 141.148 20.1071C140.734 19.1516 140.112 18.3753 139.284 17.7781C138.455 17.1809 137.419 16.8823 136.176 16.8823C135.25 16.8823 134.396 17.0734 133.616 17.4556C132.849 17.8378 132.184 18.3872 131.624 19.1038C131.075 19.8085 130.649 20.6505 130.344 21.6299C130.052 22.5973 129.905 23.6723 129.905 24.8547V25.625C129.905 26.7 130.064 27.7032 130.381 28.6348C130.71 29.5545 131.173 30.3667 131.77 31.0713C132.379 31.776 133.099 32.3254 133.927 32.7196C134.756 33.1137 135.67 33.3108 136.669 33.3108C137.839 33.3108 138.875 33.1018 139.777 32.6837C140.679 32.2538 141.489 31.5789 142.208 30.6593L143.58 31.6984C143.153 32.3195 142.617 32.8927 141.971 33.4183C141.337 33.9438 140.575 34.3618 139.686 34.6723C138.796 34.9829 137.76 35.1381 136.578 35.1381Z" fill="white"/>
<path d="M95.632 48.9815C95.2875 48.9815 94.9706 48.9186 94.6814 48.7928C94.3954 48.6669 94.1451 48.4895 93.9306 48.2604C93.7193 48.0313 93.5552 47.7603 93.4382 47.4474C93.3245 47.1312 93.2676 46.786 93.2676 46.4117V46.2036C93.2676 45.8003 93.3277 45.4357 93.448 45.1099C93.5682 44.784 93.734 44.5049 93.9452 44.2726C94.1565 44.0403 94.397 43.8629 94.6667 43.7403C94.9397 43.6144 95.2258 43.5515 95.5248 43.5515C95.8595 43.5515 96.1569 43.6112 96.4169 43.7306C96.6769 43.8467 96.8947 44.0129 97.0702 44.2291C97.2489 44.442 97.3838 44.6953 97.4748 44.9889C97.5658 45.2792 97.6113 45.6003 97.6113 45.9519V46.3052H93.6186V45.8116H97.0312V45.7438C97.0247 45.4502 96.9645 45.176 96.8508 44.9211C96.7403 44.663 96.5745 44.4533 96.3535 44.292C96.1325 44.1307 95.8563 44.05 95.5248 44.05C95.2778 44.05 95.0502 44.1016 94.8422 44.2049C94.6375 44.3081 94.4604 44.4565 94.3109 44.6501C94.1646 44.8405 94.0508 45.0679 93.9696 45.3325C93.8916 45.5938 93.8526 45.8842 93.8526 46.2036V46.4117C93.8526 46.7021 93.8948 46.9731 93.9793 47.2247C94.0671 47.4732 94.1906 47.6926 94.3499 47.8829C94.5124 48.0733 94.7041 48.2217 94.9251 48.3282C95.1461 48.4346 95.3899 48.4879 95.6564 48.4879C95.9684 48.4879 96.2447 48.4314 96.4852 48.3185C96.7257 48.2023 96.9418 48.02 97.1336 47.7716L97.4992 48.0523C97.3854 48.2201 97.2424 48.3749 97.0702 48.5169C96.9012 48.6589 96.698 48.7718 96.4608 48.8557C96.2235 48.9396 95.9473 48.9815 95.632 48.9815Z" fill="white"/>
<path d="M100.249 48.3282L101.94 43.6483H102.54L100.566 48.8847H100.142L100.249 48.3282ZM98.718 43.6483L100.429 48.3427L100.522 48.8847H100.093L98.1135 43.6483H98.718Z" fill="white"/>
<path d="M103.101 46.3488V46.1891C103.101 45.8084 103.156 45.4567 103.266 45.1341C103.377 44.8114 103.535 44.5323 103.739 44.2968C103.947 44.0613 104.196 43.879 104.485 43.75C104.774 43.6177 105.096 43.5515 105.451 43.5515C105.808 43.5515 106.131 43.6177 106.421 43.75C106.71 43.879 106.959 44.0613 107.167 44.2968C107.375 44.5323 107.534 44.8114 107.644 45.1341C107.755 45.4567 107.81 45.8084 107.81 46.1891V46.3488C107.81 46.7295 107.755 47.0812 107.644 47.4038C107.534 47.7232 107.375 48.0007 107.167 48.2362C106.962 48.4717 106.715 48.6556 106.426 48.7879C106.136 48.917 105.815 48.9815 105.46 48.9815C105.103 48.9815 104.779 48.917 104.49 48.7879C104.201 48.6556 103.952 48.4717 103.744 48.2362C103.536 48.0007 103.377 47.7232 103.266 47.4038C103.156 47.0812 103.101 46.7295 103.101 46.3488ZM103.681 46.1891V46.3488C103.681 46.6359 103.72 46.9086 103.798 47.1667C103.876 47.4215 103.99 47.649 104.139 47.849C104.289 48.0458 104.474 48.2007 104.695 48.3136C104.916 48.4266 105.171 48.483 105.46 48.483C105.746 48.483 105.998 48.4266 106.216 48.3136C106.437 48.2007 106.622 48.0458 106.772 47.849C106.921 47.649 107.033 47.4215 107.108 47.1667C107.186 46.9086 107.225 46.6359 107.225 46.3488V46.1891C107.225 45.9052 107.186 45.6358 107.108 45.3809C107.033 45.126 106.92 44.8985 106.767 44.6985C106.617 44.4985 106.432 44.3404 106.211 44.2242C105.99 44.1081 105.737 44.05 105.451 44.05C105.165 44.05 104.911 44.1081 104.69 44.2242C104.472 44.3404 104.287 44.4985 104.134 44.6985C103.985 44.8985 103.871 45.126 103.793 45.3809C103.718 45.6358 103.681 45.9052 103.681 46.1891Z" fill="white"/>
<path d="M109.667 41.4512V48.8847H109.087V41.4512H109.667Z" fill="white"/>
<path d="M112.817 48.3282L114.508 43.6483H115.108L113.134 48.8847H112.71L112.817 48.3282ZM111.286 43.6483L112.997 48.3427L113.09 48.8847H112.661L110.682 43.6483H111.286Z" fill="white"/>
<path d="M118.038 48.9815C117.694 48.9815 117.377 48.9186 117.087 48.7928C116.801 48.6669 116.551 48.4895 116.337 48.2604C116.125 48.0313 115.961 47.7603 115.844 47.4474C115.731 47.1312 115.674 46.786 115.674 46.4117V46.2036C115.674 45.8003 115.734 45.4357 115.854 45.1099C115.974 44.784 116.14 44.5049 116.351 44.2726C116.563 44.0403 116.803 43.8629 117.073 43.7403C117.346 43.6144 117.632 43.5515 117.931 43.5515C118.266 43.5515 118.563 43.6112 118.823 43.7306C119.083 43.8467 119.301 44.0129 119.476 44.2291C119.655 44.442 119.79 44.6953 119.881 44.9889C119.972 45.2792 120.017 45.6003 120.017 45.9519V46.3052H116.025V45.8116H119.437V45.7438C119.431 45.4502 119.371 45.176 119.257 44.9211C119.146 44.663 118.981 44.4533 118.76 44.292C118.539 44.1307 118.262 44.05 117.931 44.05C117.684 44.05 117.456 44.1016 117.248 44.2049C117.044 44.3081 116.866 44.4565 116.717 44.6501C116.571 44.8405 116.457 45.0679 116.376 45.3325C116.298 45.5938 116.259 45.8842 116.259 46.2036V46.4117C116.259 46.7021 116.301 46.9731 116.385 47.2247C116.473 47.4732 116.597 47.6926 116.756 47.8829C116.918 48.0733 117.11 48.2217 117.331 48.3282C117.552 48.4346 117.796 48.4879 118.062 48.4879C118.374 48.4879 118.651 48.4314 118.891 48.3185C119.132 48.2023 119.348 48.02 119.54 47.7716L119.905 48.0523C119.792 48.2201 119.648 48.3749 119.476 48.5169C119.307 48.6589 119.104 48.7718 118.867 48.8557C118.63 48.9396 118.353 48.9815 118.038 48.9815Z" fill="white"/>
<path d="M127.033 47.8684V41.4512H127.618V48.8847H127.072L127.033 47.8684ZM123.371 46.3197V46.2181C123.371 45.8116 123.419 45.4454 123.513 45.1195C123.607 44.7905 123.742 44.5098 123.917 44.2775C124.096 44.0419 124.311 43.8629 124.561 43.7403C124.811 43.6144 125.094 43.5515 125.409 43.5515C125.718 43.5515 125.991 43.6015 126.228 43.7016C126.466 43.8016 126.669 43.9451 126.838 44.1323C127.01 44.3194 127.148 44.542 127.252 44.8001C127.359 45.0582 127.437 45.3454 127.486 45.6616V46.9537C127.447 47.2506 127.376 47.5232 127.272 47.7716C127.168 48.0168 127.029 48.2314 126.857 48.4153C126.685 48.5959 126.477 48.7363 126.233 48.8363C125.993 48.9331 125.715 48.9815 125.4 48.9815C125.088 48.9815 124.806 48.917 124.556 48.7879C124.306 48.6589 124.093 48.4766 123.917 48.241C123.742 48.0023 123.607 47.72 123.513 47.3941C123.419 47.0683 123.371 46.7101 123.371 46.3197ZM123.956 46.2181V46.3197C123.956 46.6263 123.987 46.9102 124.049 47.1715C124.111 47.4328 124.205 47.6603 124.332 47.8539C124.459 48.0475 124.62 48.1991 124.815 48.3088C125.01 48.4185 125.24 48.4733 125.507 48.4733C125.842 48.4733 126.123 48.4104 126.35 48.2846C126.578 48.1555 126.76 47.9862 126.896 47.7764C127.033 47.5635 127.132 47.3312 127.194 47.0796V45.5745C127.155 45.4035 127.098 45.2292 127.023 45.0518C126.948 44.8743 126.846 44.7114 126.716 44.563C126.589 44.4114 126.427 44.2904 126.228 44.2C126.033 44.1065 125.796 44.0597 125.517 44.0597C125.247 44.0597 125.014 44.1145 124.819 44.2242C124.624 44.3339 124.462 44.4872 124.332 44.684C124.205 44.8776 124.111 45.105 124.049 45.3664C123.987 45.6277 123.956 45.9116 123.956 46.2181Z" fill="white"/>
<path d="M132.361 47.9458V45.2454C132.361 44.9969 132.309 44.7824 132.205 44.6017C132.101 44.421 131.948 44.2823 131.747 44.1855C131.545 44.0887 131.297 44.0403 131.001 44.0403C130.728 44.0403 130.484 44.0887 130.27 44.1855C130.059 44.2791 129.891 44.4065 129.768 44.5678C129.647 44.7259 129.587 44.9018 129.587 45.0953L129.002 45.0905C129.002 44.8937 129.051 44.7033 129.148 44.5194C129.246 44.3355 129.384 44.171 129.563 44.0258C129.742 43.8806 129.955 43.7661 130.202 43.6822C130.452 43.5951 130.726 43.5515 131.025 43.5515C131.402 43.5515 131.734 43.6144 132.02 43.7403C132.309 43.8661 132.535 44.0548 132.698 44.3065C132.86 44.5582 132.941 44.8743 132.941 45.255V47.7861C132.941 47.9668 132.954 48.1539 132.98 48.3475C133.01 48.5411 133.05 48.7008 133.102 48.8266V48.8847H132.483C132.444 48.7686 132.413 48.6234 132.39 48.4491C132.371 48.2717 132.361 48.1039 132.361 47.9458ZM132.498 45.8358L132.507 46.281H131.362C131.063 46.281 130.795 46.3085 130.557 46.3633C130.323 46.4149 130.125 46.4924 129.963 46.5956C129.8 46.6956 129.675 46.8166 129.587 46.9586C129.503 47.1005 129.46 47.2618 129.46 47.4425C129.46 47.6296 129.508 47.8006 129.602 47.9555C129.699 48.1104 129.836 48.2346 130.011 48.3282C130.19 48.4185 130.401 48.4637 130.645 48.4637C130.97 48.4637 131.256 48.404 131.503 48.2846C131.753 48.1652 131.96 48.0087 132.122 47.8152C132.285 47.6216 132.394 47.4103 132.449 47.1812L132.702 47.5151C132.66 47.6764 132.582 47.8426 132.468 48.0136C132.358 48.1814 132.213 48.3394 132.035 48.4879C131.856 48.633 131.645 48.7524 131.401 48.846C131.16 48.9363 130.887 48.9815 130.582 48.9815C130.237 48.9815 129.937 48.917 129.68 48.7879C129.426 48.6589 129.228 48.483 129.085 48.2604C128.945 48.0346 128.875 47.7797 128.875 47.4958C128.875 47.2376 128.931 47.007 129.041 46.8037C129.152 46.5972 129.311 46.423 129.519 46.281C129.73 46.1358 129.984 46.0261 130.28 45.9519C130.579 45.8745 130.913 45.8358 131.284 45.8358H132.498Z" fill="white"/>
<path d="M135.155 43.6483V48.8847H134.575V43.6483H135.155ZM134.472 42.1335C134.472 42.0239 134.506 41.9319 134.575 41.8577C134.646 41.7803 134.744 41.7415 134.867 41.7415C134.991 41.7415 135.088 41.7803 135.16 41.8577C135.234 41.9319 135.272 42.0239 135.272 42.1335C135.272 42.24 135.234 42.332 135.16 42.4094C135.088 42.4836 134.991 42.5207 134.867 42.5207C134.744 42.5207 134.646 42.4836 134.575 42.4094C134.506 42.332 134.472 42.24 134.472 42.1335Z" fill="white"/>
<path d="M137.397 41.4512V48.8847H136.817V41.4512H137.397Z" fill="white"/>
<path d="M140.556 48.362L142.199 43.6483H142.828L140.595 49.7268C140.55 49.8462 140.491 49.9784 140.42 50.1236C140.352 50.2688 140.261 50.4075 140.147 50.5398C140.036 50.6753 139.897 50.785 139.728 50.8689C139.562 50.956 139.359 50.9996 139.118 50.9996C139.056 50.9996 138.977 50.9915 138.879 50.9754C138.785 50.9625 138.717 50.9496 138.674 50.9367L138.67 50.4479C138.705 50.4576 138.757 50.4656 138.826 50.4721C138.894 50.4785 138.941 50.4818 138.967 50.4818C139.178 50.4818 139.355 50.4463 139.498 50.3753C139.645 50.3043 139.767 50.1978 139.864 50.0559C139.962 49.9171 140.048 49.7429 140.122 49.5332L140.556 48.362ZM139.021 43.6483L140.703 48.1443L140.859 48.7492L140.434 48.9863L138.387 43.6483H139.021Z" fill="white"/>
<path d="M2.34144 45.8099C2.34144 46.4427 1.81729 46.9557 1.17072 46.9557C0.52415 46.9557 0 46.4427 0 45.8099C0 45.1771 0.52415 44.6641 1.17072 44.6641C1.81729 44.6641 2.34144 45.1771 2.34144 45.8099Z" fill="white"/>
<rect x="2.33301" y="45.5391" width="88.6152" height="0.582994" fill="url(#paint0_linear_1_401)"/>
<defs>
<linearGradient id="paint0_linear_1_401" x1="2.33301" y1="46.1221" x2="90.9484" y2="46.0293" gradientUnits="userSpaceOnUse">
<stop stop-color="white" stop-opacity="0"/>
<stop offset="0.9999" stop-color="white" stop-opacity="0.997917"/>
<stop offset="1" stop-color="white"/>
</linearGradient>
</defs>
</svg>
